<?xml version="1.0" encoding="UTF-8" standalone="no"?>
<!-- Created with Inkscape (http://www.inkscape.org/) -->

<svg
   xmlns:dc="http://purl.org/dc/elements/1.1/"
   xmlns:cc="http://creativecommons.org/ns#"
   xmlns:rdf="http://www.w3.org/1999/02/22-rdf-syntax-ns#"
   xmlns:svg="http://www.w3.org/2000/svg"
   xmlns="http://www.w3.org/2000/svg"
   xmlns:sodipodi="http://sodipodi.sourceforge.net/DTD/sodipodi-0.dtd"
   xmlns:inkscape="http://www.inkscape.org/namespaces/inkscape"
   width="744.09448819"
   height="1052.3622047"
   id="svg2"
   version="1.1"
   inkscape:version="0.48.4 r9939"
   sodipodi:docname="New document 1">
  <defs
     id="defs4" />
  <sodipodi:namedview
     id="base"
     pagecolor="#ffffff"
     bordercolor="#666666"
     borderopacity="1.0"
     inkscape:pageopacity="0.0"
     inkscape:pageshadow="2"
     inkscape:zoom="0.35"
     inkscape:cx="375"
     inkscape:cy="520"
     inkscape:document-units="px"
     inkscape:current-layer="layer1"
     showgrid="false"
     inkscape:window-width="1600"
     inkscape:window-height="845"
     inkscape:window-x="-2"
     inkscape:window-y="-3"
     inkscape:window-maximized="1" />
  <metadata
     id="metadata7">
    <rdf:RDF>
      <cc:Work
         rdf:about="">
        <dc:format>image/svg+xml</dc:format>
        <dc:type
           rdf:resource="http://purl.org/dc/dcmitype/StillImage" />
        <dc:title></dc:title>
      </cc:Work>
    </rdf:RDF>
  </metadata>
  <g
     inkscape:label="Layer 1"
     inkscape:groupmode="layer"
     id="layer1">
    <path
       style="fill:#000000;fill-opacity:1;fill-rule:nonzero;stroke:none"
       id="path2987"
       d="m 246.36389,301.94241 c 2.85005,-0.84119 5.7451,-1.51048 8.64548,-2.15495 4.97209,-1.13112 10.10941,-1.00351 15.16894,-0.75474 7.61928,0.45278 15.04461,2.21039 22.38821,4.18419 8.82179,2.49503 17.46366,5.55162 26.0303,8.80329 9.00716,3.48668 17.78298,7.53135 26.27966,12.11836 8.28558,4.38142 15.10866,10.82382 21.44925,17.61758 5.8292,6.08642 9.58171,13.36742 12.13819,21.31251 2.54921,8.14562 1.60641,16.19181 -0.49061,24.27946 -2.59512,8.96507 -6.83168,17.2921 -11.35516,25.40959 -5.0753,8.75018 -10.2787,17.42544 -15.42421,26.13457 -4.79504,8.19611 -9.844,16.2191 -13.34665,25.06714 -3.12379,8.76972 -4.58332,17.96622 -5.22286,27.21771 -0.426,8.29648 2.50903,15.70602 6.32568,22.87402 4.27998,7.40168 10.16651,13.58202 16.41103,19.33632 3.42993,3.04198 7.11573,5.76667 10.79563,8.49206 0,0 -35.56839,22.50645 -35.56839,22.50645 l 0,0 c -3.77397,-2.84243 -7.55368,-5.68492 -11.05958,-8.86069 -6.5325,-6.12585 -12.66584,-12.70517 -17.17243,-20.50968 -4.17161,-7.80306 -7.49314,-15.9007 -7.38421,-24.92696 0.45311,-9.61515 1.8859,-19.15854 4.75267,-28.37158 3.21613,-9.37784 7.89429,-17.32612 13.04671,-25.7631 5.13256,-8.69705 10.30759,-17.36855 15.44394,-26.06325 4.52146,-7.82942 8.84606,-15.82096 11.66746,-24.44881 2.2817,-7.29125 3.7308,-14.5315 1.53584,-22.07273 -2.20274,-7.41198 -5.66465,-14.10198 -11.09739,-19.7089 -6.08347,-6.45843 -12.67307,-12.44676 -20.67128,-16.46986 -8.41139,-4.4009 -17.04595,-8.36346 -25.94851,-11.67532 -8.5082,-3.12457 -17.08856,-6.07591 -25.86297,-8.37266 -7.21414,-1.7519 -14.52337,-3.2297 -21.98105,-3.28258 -4.95482,0.0424 -9.89208,0.33197 -14.67835,1.73483 -2.90349,0.73669 -5.78593,1.54449 -8.65557,2.40308 0,0 33.84023,-26.05535 33.84023,-26.05535 z"
       inkscape:connector-curvature="0" />
    <path
       style="fill:#000000;fill-opacity:1;fill-rule:nonzero;stroke:none"
       id="path2989"
       d="m 418.29634,268.76187 c 2.51493,0.32379 4.98312,0.91209 7.44637,1.50429 3.7039,0.8771 7.33747,2.07129 10.92622,3.33789 4.25745,1.54057 8.40054,3.37394 12.33548,5.61252 4.13041,2.3896 7.99836,5.17725 11.77098,8.08919 4.03679,2.72263 7.26053,6.01324 9.95402,10.04701 2.57911,4.20849 4.29042,8.85245 5.83244,13.51789 1.35403,4.58828 2.06722,9.33478 2.68799,14.06863 0.906,5.11302 0.17865,10.14547 -1.27502,15.066 -1.65475,5.10888 -4.45729,9.66092 -7.55811,13.99831 -3.20038,4.29869 -7.0333,8.04904 -11.01116,11.61638 -4.03068,3.59352 -8.43157,6.72607 -12.95664,9.65846 -15.82561,9.78608 -31.9131,19.15001 -48.53751,27.49233 0,0 33.10164,-26.51306 33.10164,-26.51306 l 0,0 c 2.11325,-1.08696 2.77072,-1.41284 4.87178,-2.54334 0.8173,-0.43976 3.24585,-1.80126 2.44327,-1.33518 -29.92865,17.38016 -45.51527,26.1349 -31.42691,18.21038 4.60301,-2.69244 9.0636,-5.6363 13.19121,-9.02285 4.02559,-3.34008 7.93998,-6.81811 11.34233,-10.80873 3.20712,-3.91115 6.17875,-8.04695 8.10325,-12.76019 1.72853,-4.24547 2.8779,-8.6875 2.09976,-13.29951 -0.53597,-4.48711 -1.13746,-8.98592 -2.29802,-13.36133 -1.37945,-4.30278 -2.86358,-8.61696 -5.243,-12.48747 -2.47566,-3.6122 -5.66889,-6.3399 -9.23792,-8.86327 -3.64681,-2.73747 -7.38523,-5.36371 -11.40871,-7.52686 -3.86599,-1.95072 -7.85067,-3.65579 -11.97345,-4.99275 -3.53158,-1.12973 -7.08586,-2.20774 -10.7322,-2.90663 -2.44837,-0.48157 -4.90215,-0.89786 -7.37915,-1.20539 0,0 34.93106,-24.59272 34.93106,-24.59272 z"
       inkscape:connector-curvature="0" />
    <path
       style="fill:#000000;fill-opacity:1;fill-rule:nonzero;stroke:none"
       id="path2991"
       d="m 236.16929,392.15305 c -0.0261,2.54718 0.42881,5.07755 0.93156,7.56609 0.85729,3.82917 1.99381,7.58699 3.09411,11.35116 1.59865,5.32301 3.31103,10.61752 5.35381,15.78772 2.22797,5.91692 5.74151,11.12729 9.56077,16.11022 4.399,5.8268 9.82209,10.61939 15.58551,15.03756 6.60828,4.9849 13.90064,8.92592 21.3153,12.55525 7.70287,3.74417 15.65088,6.94612 23.71263,9.82453 8.51752,3.07339 17.27659,5.35733 26.07922,7.43739 9.4999,2.19926 19.07201,4.06486 28.65447,5.863 9.51139,1.79109 19.06136,3.36344 28.62065,4.874 6.14752,0.96145 12.30259,1.87355 18.45708,2.78906 0,0 -34.44023,24.24465 -34.44023,24.24465 l 0,0 c -6.14822,-0.93605 -12.29714,-1.86811 -18.43856,-2.84803 -9.57959,-1.5448 -19.14971,-3.15123 -28.67957,-4.98153 -9.62846,-1.84238 -19.24711,-3.75092 -28.78553,-6.02086 -8.92282,-2.18042 -17.79634,-4.58994 -26.41726,-7.78758 -8.14374,-3.03333 -16.18693,-6.34068 -23.97048,-10.21785 -7.60105,-3.83616 -15.05198,-8.01552 -21.80867,-13.23251 -5.99544,-4.70305 -11.63871,-9.7963 -16.23916,-15.9172 -4.03538,-5.29166 -7.76874,-10.82643 -10.19864,-17.06613 -2.14528,-5.263 -3.88718,-10.67395 -5.62923,-16.08166 -1.1672,-3.8393 -2.37945,-7.66705 -3.36281,-11.55859 -0.6517,-2.74981 -1.12457,-5.53196 -1.44784,-8.33979 0,0 38.05287,-19.3889 38.05287,-19.3889 z"
       inkscape:connector-curvature="0" />
    <path
       style="fill:#000000;fill-opacity:1;fill-rule:nonzero;stroke:none"
       id="path2993"
       d="m 470.46106,392.06688 c -0.0711,2.47399 0.10229,4.94471 0.22938,7.41404 0.22156,3.37654 0.54023,6.74518 0.75837,10.12218 0.30533,4.36235 0.72727,8.71556 1.13278,13.06946 0.51454,4.99786 0.75342,10.01736 1.02047,15.03288 0.31812,5.71954 0.56513,11.44302 0.92147,17.16036 0.45406,6.08942 0.81339,12.18468 1.10882,18.28364 0.22846,5.05771 0.45589,10.11548 0.67888,15.17344 0,0 -37.5501,19.33852 -37.5501,19.33852 l 0,0 c -0.21572,-5.04103 -0.42672,-10.08241 -0.69859,-15.1208 -0.34186,-6.06199 -0.73627,-12.12064 -1.20392,-18.17433 -0.38831,-5.73392 -0.57079,-11.47954 -0.90667,-17.21675 -0.27909,-4.94991 -0.59076,-9.89808 -1.07103,-14.83329 -0.3918,-4.38294 -0.7822,-8.76601 -1.18807,-13.14768 -0.24731,-3.38229 -0.53772,-6.76092 -0.87866,-10.13516 -0.1379,-2.52374 -0.32734,-5.04714 -0.4181,-7.57144 0,0 38.06497,-19.39507 38.06497,-19.39507 z"
       inkscape:connector-curvature="0" />
    <path
       style="fill:#000000;fill-opacity:1;fill-rule:nonzero;stroke:none"
       id="path3003"
       d="m 440.67672,499.94747 c 1.10996,-0.90451 2.21068,-1.81946 3.29221,-2.75792 1.27461,-1.09004 2.5267,-2.20515 3.77021,-3.33043 1.30177,-1.17292 2.57333,-2.38761 3.93535,-3.49126 1.46295,-1.1625 2.74977,-2.51087 4.03608,-3.86046 1.4298,-1.45492 2.81182,-2.97085 4.06107,-4.58491 1.31948,-1.72116 2.55433,-3.48162 3.58769,-5.38962 1.105,-2.18183 2.23081,-4.35492 3.20586,-6.59856 1.15887,-2.66948 2.05355,-5.44189 2.93223,-8.21291 1.05232,-3.45058 2.00605,-6.92974 2.97058,-10.40554 1.01276,-3.5797 1.94771,-7.18013 2.83432,-10.79291 0.82773,-3.55978 1.7052,-7.10704 2.59076,-10.65278 0.76857,-3.40694 1.81196,-6.73639 2.96694,-10.02919 1.13808,-3.12544 2.45422,-6.18151 3.66749,-9.27829 1.10826,-2.94822 2.1786,-5.9097 3.32565,-8.8432 1.02647,-2.61381 2.04563,-5.2289 3.19422,-7.79179 0.17712,-0.38658 0.35424,-0.77316 0.53137,-1.15973 0,0 38.80915,-17.68614 38.80915,-17.68614 l 0,0 c -0.18137,0.3821 -0.36273,0.76421 -0.54409,1.14631 -1.18676,2.49892 -2.36687,4.99537 -3.32262,7.59528 -1.1731,2.91249 -2.33767,5.8269 -3.37339,8.79205 -1.14039,3.11225 -2.35318,6.19719 -3.70076,9.22626 -1.18707,3.16812 -2.39078,6.34488 -3.16465,9.64498 -0.89547,3.53618 -1.82233,7.06495 -2.61213,10.6266 -0.88077,3.65133 -1.76066,7.30425 -2.78614,10.91834 -0.96195,3.4811 -1.89482,6.96937 -2.88848,10.44123 -0.79014,2.90352 -1.71368,5.76772 -2.71464,8.60535 -0.91601,2.34309 -1.86291,4.66492 -3.03768,6.89438 -0.98553,2.06308 -1.87848,4.18347 -3.3039,5.9946 -1.19651,1.76181 -2.41316,3.48955 -3.82434,5.09041 -1.3046,1.389 -2.56275,2.82367 -3.89485,4.18253 -1.24413,1.22826 -2.63234,2.30497 -3.93805,3.46468 -1.24301,1.1303 -2.47075,2.27749 -3.72649,3.39351 -1.07663,0.95135 -2.13319,1.92607 -3.23544,2.84775 0,0 -39.64353,16.00138 -39.64353,16.00138 z"
       inkscape:connector-curvature="0" />
    <path
       style="fill:#000000;fill-opacity:1;fill-rule:nonzero;stroke:none"
       id="path3011"
       d="m 387.77115,230.44002 c -1.89954,1.5901 -3.36564,3.52725 -4.7196,5.58581 -2.10138,3.36171 -3.92695,6.88561 -5.78851,10.38302 -2.24739,4.42787 -4.66481,8.75961 -7.23432,13.00756 -2.75903,4.53157 -5.87298,8.82698 -9.05734,13.06489 -3.09468,4.15967 -6.42699,8.12848 -9.80533,12.05788 -3.44203,4.00194 -6.9961,7.90492 -10.52332,11.83136 -3.5683,3.97948 -7.09869,7.99255 -10.61691,12.01629 -1.74912,1.97546 -3.44092,3.99995 -5.12902,6.02735 0,0 -39.03322,16.60542 -39.03322,16.60542 l 0,0 c 1.68059,-2.053 3.34493,-4.11984 5.07114,-6.13497 3.52841,-4.02964 7.05585,-8.05983 10.60357,-12.07205 3.51748,-3.91132 7.05505,-7.80391 10.53312,-11.7501 3.38116,-3.87774 6.79342,-7.72937 9.92583,-11.81392 3.18577,-4.14907 6.3896,-8.29303 9.20747,-12.70632 2.64563,-4.10707 5.1287,-8.31345 7.31572,-12.68504 1.81759,-3.55568 3.68721,-7.08514 5.57714,-10.60265 1.25908,-2.2217 2.43737,-4.59025 4.19409,-6.46159 0,0 39.47949,-16.35294 39.47949,-16.35294 z"
       inkscape:connector-curvature="0" />
  </g>
</svg>
